- 
http://www.Speed.Cd
 
http://www.Speed.Cd       the fast  and The Hottest Private Tracker on the net

Please Seed back to make the speed Faster!!
 ............ NFO .............
-[IMG]http://i.imgur.com/qRV8Gtn.jpg[/IMG]

Source: ONLiNE
 
http://www.imdb.com/title/tt1545328

The story centers on a botched fish market robbery that leads to the involvement of the local police and a gangster out for revenge.

General
Complete name                            : Stand Off 2011 WEBRip x264 AAC-OFFLiNE.mp4
Format                                   : MPEG-4
Format profile                           : Base Media
Codec ID                                 : isom
File size                                : 1.40 GiB
Duration                                 : 1h 29mn
Overall bit rate mode                    : Variable
Overall bit rate                         : 2 239 Kbps
Encoded date                             : UTC 2013-03-06 22:27:24
Tagged date                              : UTC 2013-03-06 22:27:24

Video
ID                                       : 1
Format                                   : AVC
Format/Info                              : Advanced Video Codec
Format profile                           : High@L4.1
Format settings, CABAC                   : Yes
Format settings, ReFrames                : 3 frames
Codec ID                                 : avc1
Codec ID/Info                            : Advanced Video Coding
Duration                                 : 1h 29mn
Bit rate mode                            : Variable
Bit rate                                 : 1 920 Kbps
Maximum bit rate                         : 40.0 Mbps
Width                                    : 720 pixels
Height                                   : 384 pixels
Display aspect ratio                     : 1.85:1
Frame rate mode                          : Constant
Frame rate                               : 23.976 fps
Color space                              : YUV
Chroma subsampling                       : 4:2:0
Bit depth                                : 8 bits
Scan type                                : Progressive
Bits/(Pixel*Frame)                       : 0.290
Stream size                              : 1.20 GiB (86%)
Writing library                          : x264 core 130 r2273 b3065e6

Audio
ID                                       : 2
Format                                   : AAC
Format/Info                              : Advanced Audio Codec
Format profile                           : LC
Codec ID                                 : 40
Duration                                 : 1h 29mn
Bit rate mode                            : Variable
Bit rate                                 : 316 Kbps
Maximum bit rate                         : 418 Kbps
Channel(s)                               : 6 channels
Channel positions                        : Front: L C R, Side: L R, LFE
Sampling rate                            : 48.0 KHz
Compression mode                         : Lossy
Stream size                              : 202 MiB (14%)
Language                                 : English
Encoded date                             : UTC 2013-03-06 20:35:55
Tagged date                              : UTC 2013-03-06 22:28:00

[IMG]http://i.imgur.com/TuYIQsv.png[/IMG]
[IMG]http://i.imgur.com/lpc5Fy0.png[/IMG]
[IMG]http://i.imgur.com/mQXEULr.png[/IMG]
[IMG]http://i.imgur.com/E63Qwe1.png[/IMG]

Greets: To Our Friends